<svg width="18" height="17" viewBox="0 0 18 17" fill="none" xmlns="http://www.w3.org/2000/svg">
<path fill-rule="evenodd" clip-rule="evenodd" d="M14.8122 15.5424C15.7331 15.5416 16.4782 14.795 16.4774 13.8742L16.4728 8.87423C16.4723 8.41423 16.0987 8.04124 15.6387 8.04166L13.1387 8.04396L13.144 13.8773C13.1449 14.7981 13.8914 15.5433 14.8122 15.5424Z" stroke="#F3722C" stroke-width="1.25" stroke-linecap="round" stroke-linejoin="round"/>
<path d="M4.80312 4.71843L9.80311 4.71384" stroke="#F3722C" stroke-width="1.25" stroke-linecap="round" stroke-linejoin="round"/>
<path d="M4.80702 7.94352L9.80702 7.93893" stroke="#F3722C" stroke-width="1.25" stroke-linecap="round" stroke-linejoin="round"/>
<path d="M4.80898 11.4352L7.30898 11.4329" stroke="#F3722C" stroke-width="1.25" stroke-linecap="round" stroke-linejoin="round"/>
<path d="M13.1396 8.04414L13.1342 2.2108C13.1338 1.7508 12.7601 1.37781 12.3001 1.37824L2.30013 1.38742C1.84013 1.38784 1.46714 1.76152 1.46756 2.22152L1.47827 13.8882C1.47912 14.809 2.22564 15.5542 3.14647 15.5533L14.8131 15.5426" stroke="#F3722C" stroke-width="1.25" stroke-linecap="round" stroke-linejoin="round"/>
</svg>
