<svg width="26" height="27" viewBox="0 0 26 27" fill="none" xmlns="http://www.w3.org/2000/svg">
<path d="M4.59047 19.7929L4.77272 19.793C6.92371 19.795 10.8029 18.6181 10.8077 13.4367C10.8135 7.07486 14.3933 4.16659 18.2524 3.21546L17.1641 2.1251C14.8726 -0.170593 11.1489 -0.174011 8.8532 2.11747L1.72425 9.23335C-0.571441 11.5248 -0.574861 15.2485 1.71662 17.5442L4.03581 19.8676C4.20619 19.8202 4.39636 19.7927 4.59047 19.7929Z" fill="url(#paint0_linear_16_33)"/>
<path d="M24.2761 9.25399L22.0559 7.02966C21.8974 7.06516 21.7349 7.08878 21.5646 7.08862L21.3824 7.08846C19.2314 7.08648 15.3522 8.26339 15.3474 13.4448C15.3416 19.8462 11.7143 22.7505 7.83136 23.6818L8.82474 24.677C11.1162 26.9727 14.8399 26.9761 17.1356 24.6846L24.2645 17.5687C26.5681 15.2733 26.5715 11.5536 24.2761 9.25399Z" fill="url(#paint1_linear_16_33)"/>
<defs>
<linearGradient id="paint0_linear_16_33" x1="13.4107" y1="13.8175" x2="5.28333" y2="5.67516" gradientUnits="userSpaceOnUse">
<stop stop-color="#F3722C"/>
<stop offset="1" stop-color="#F94144"/>
</linearGradient>
<linearGradient id="paint1_linear_16_33" x1="20.7053" y1="21.1253" x2="12.7002" y2="13.1055" gradientUnits="userSpaceOnUse">
<stop stop-color="#F3722C"/>
<stop offset="1" stop-color="#F94144"/>
</linearGradient>
</defs>
</svg>
