<svg width="22" height="21" viewBox="0 0 22 21" fill="none" xmlns="http://www.w3.org/2000/svg">
<path fill-rule="evenodd" clip-rule="evenodd" d="M5.99493 15.6985C7.3036 14.4289 9.07348 13.6488 11.016 13.6506C12.9393 13.6524 14.6886 14.4198 15.995 15.6685C14.6863 16.9381 12.9164 17.7182 10.9739 17.7164C9.05058 17.7146 7.30129 16.9472 5.99493 15.6985Z" stroke="#F3722C" stroke-width="1.5" stroke-linecap="round" stroke-linejoin="round"/>
<path d="M4.30936 13.5644C3.80196 12.5522 3.49883 11.4195 3.49994 10.2095C3.50375 6.06448 6.86182 2.71256 11.0068 2.71637C15.1518 2.72017 18.5037 6.07825 18.4999 10.2232C18.4988 11.4316 18.1953 12.5646 17.6827 13.575" stroke="#F3722C" stroke-width="1.5" stroke-linecap="round" stroke-linejoin="round"/>
<path d="M12.7708 6.7835C13.7462 7.76071 13.7447 9.34362 12.7675 10.319C11.7903 11.2945 10.2074 11.293 9.23198 10.3158C8.25657 9.33858 8.25803 7.75567 9.23523 6.78026C10.2124 5.80485 11.7953 5.8063 12.7708 6.7835Z" stroke="#F3722C" stroke-width="1.5" stroke-linecap="round" stroke-linejoin="round"/>
</svg>
